<svg xmlns="http://www.w3.org/2000/svg" width="200" height="200" viewBox="0 0 200 200"><path fill-rule="evenodd" clip-rule="evenodd" d="M62.908 57.637h75.365V141.923H61.368V57.638h1.54zm13.71 14.08V95.42h6.28V77.643h6.252V95.42h6.28V71.717H76.62zm18.813 50.14v-17.825h-6.28v11.9H82.9v-11.9h-6.282v17.826h6.28v5.983h6.252v-5.982h6.28zm8.777-50.14V95.42h6.28v-5.926h6.252v5.926h6.28V71.718h-18.813zm12.532 11.85v-5.924h-6.252v5.925h6.25zm-12.533 20.575v23.7h6.28v-5.925h12.532v-17.775h-18.813zm12.53 11.85v-5.926h-6.25v5.926h6.25zM135.19 60.72H64.45v78.122h70.74V60.72z"/></svg>