<svg style="position: absolute; width: 0; height: 0; overflow: hidden;" version="1.1" xmlns="http://www.w3.org/2000/svg" xmlns:xlink="http://www.w3.org/1999/xlink">
  <defs>
    <symbol id="icon-brasil" viewBox="0 0 32 32">
      <title>brasil</title>
      <path class="path1" d="M16 0.004c8.836 0 16 7.16 16 15.996s-7.164 15.996-16 15.996c-8.836 0-16-7.16-16-15.996s7.164-15.996 16-15.996v0zM16 1.92c-7.744 0-14.080 6.336-14.080 14.080v0c0 7.744 6.336 14.080 14.080 14.080v0c7.744 0 14.080-6.332 14.080-14.080v0c0-7.744-6.336-14.080-14.080-14.080v0 0zM16 10.264v0c3.168 0 5.732 2.568 5.732 5.736s-2.564 5.736-5.732 5.736c-3.168 0-5.736-2.568-5.736-5.736s2.568-5.736 5.736-5.736zM16 7.268l-13.652 8.732 13.652 8.728 13.656-8.728-13.656-8.732z"></path>
    </symbol>
    <symbol id="icon-world" viewBox="0 0 32 32">
      <title>world</title>
      <path class="path1" d="M23.568 23.788c0.036-0.368-0.368-0.492-0.62-0.68-0.24-0.18-0.388-0.384-0.732-0.312-0.040 0.020-0.408 0.148-0.336 0.224-0.236-0.204-0.348-0.312-0.656-0.408-0.288-0.092-0.492-0.46-0.788-0.132-0.148 0.148-0.072 0.368-0.148 0.512-0.236-0.2 0.224-0.436 0.040-0.656-0.22-0.256-0.608 0.164-0.792 0.276-0.108 0.092-0.24 0.128-0.312 0.236-0.096 0.132-0.132 0.296-0.204 0.42-0.056-0.14-0.368-0.108-0.38-0.22 0.068 0.444 0.068 0.896 0.16 1.34 0.060 0.256 0 0.68-0.212 0.876-0.212 0.2-0.492 0.42-0.532 0.732-0.036 0.22 0.016 0.42 0.224 0.476 0.016 0.28-0.3 0.476-0.28 0.772 0 0.016 0.016 0.204 0.040 0.296 2.512-0.444 4.748-1.692 6.436-3.464-0.112-0.108-0.308-0.080-0.456-0.148-0.156-0.044-0.264-0.1-0.452-0.14zM18.344 23c-0.372 0.188-0.708 0.036-0.904-0.328-0.040-0.092-0.328-0.608-0.072-0.608 0.344 0 0.108-0.272 0.072-0.532-0.040-0.256-0.292-0.42-0.42-0.64-0.108 0.22-0.48 0.164-0.592-0.016 0 0.056-0.056 0.148-0.056 0.22-0.096 0-0.18 0.016-0.276-0.016 0.036-0.224 0.056-0.5 0.108-0.732 0.092-0.336 0.7-0.976-0.088-0.936-0.272 0.016-0.38 0.128-0.476 0.368-0.092 0.22-0.056 0.42-0.312 0.532-0.164 0.072-0.712 0.040-0.876-0.056-0.34-0.204-0.568-0.844-0.568-1.208-0.024-0.492 0.232-0.936 0-1.392 0.112-0.096 0.216-0.28 0.34-0.368 0.104-0.080 0.228 0.056 0.284-0.168-0.056-0.036-0.124-0.112-0.144-0.112 0.272 0.132 0.784-0.18 1.020 0 0.148 0.112 0.312 0.148 0.404-0.036 0.016-0.056-0.132-0.28-0.052-0.42 0.052 0.312 0.252 0.368 0.524 0.164 0.112 0.108 0.404 0.072 0.608 0.18 0.204 0.132 0.24 0.328 0.48 0.056 0.144 0.22 0.16 0.22 0.216 0.444 0.056 0.196 0.164 0.712 0.352 0.804 0.396 0.236 0.3-0.408 0.264-0.624-0.024-0.016-0.024-0.624-0.036-0.624-0.592-0.128-0.372-0.584-0.040-0.896 0.056-0.032 0.476-0.18 0.656-0.328 0.164-0.148 0.368-0.404 0.272-0.64 0.092 0 0.172-0.076 0.204-0.164-0.056-0.024-0.276-0.204-0.312-0.188 0.132-0.068 0.108-0.18 0.036-0.288 0.18-0.116 0.096-0.312 0.276-0.388 0.204 0.276 0.608-0.032 0.408-0.256 0.184-0.252 0.612-0.128 0.72-0.368 0.272 0.076 0.072-0.276 0.22-0.476 0.132-0.164 0.352-0.164 0.512-0.256 0 0.024 0.46-0.252 0.312-0.276 0.312 0.040 0.936-0.288 0.46-0.568 0.072-0.164-0.164-0.236-0.328-0.272 0.128-0.032 0.292 0.040 0.4-0.032 0.24-0.172 0.076-0.244-0.128-0.296-0.256-0.068-0.584 0.092-0.788 0.22-0.14 0.108-0.236 0.312-0.416 0.352 0.088-0.024 0.18-0.352 0.236-0.424 0.108-0.132 0.252-0.2 0.4-0.272 0.312-0.132 0.624-0.168 0.952-0.224 0.312-0.072 0.696-0.072 0.936 0.204-0.056-0.056 0.384-0.44 0.436-0.456 0.168-0.092 0.44-0.060 0.552-0.224 0.040-0.056 0.040-0.4 0.040-0.4-0.312 0.032-0.424-0.256-0.444-0.512 0 0.016-0.036 0.068-0.108 0.148 0.016-0.28-0.328-0.076-0.46-0.108-0.42-0.108-0.368-0.408-0.492-0.716-0.072-0.164-0.272-0.22-0.352-0.384-0.072-0.108-0.108-0.348-0.272-0.368-0.108-0.020-0.312 0.384-0.344 0.368-0.172-0.092-0.244 0.032-0.368 0.108-0.116 0.072-0.204 0.040-0.312 0.096 0.328-0.116-0.144-0.296-0.312-0.26 0.256-0.076 0.132-0.348-0.016-0.476h0.096c-0.040-0.168-0.548-0.312-0.712-0.42-0.168-0.108-1.048-0.296-1.232-0.184-0.22 0.128 0.056 0.496 0.056 0.676 0.020 0.22-0.22 0.276-0.22 0.46 0 0.312 0.584 0.26 0.444 0.68-0.096 0.252-0.444 0.312-0.584 0.508-0.148 0.188 0.016 0.516 0.164 0.648 0.14 0.108-0.26 0.292-0.312 0.328-0.312 0.148-0.548-0.312-0.624-0.584-0.068-0.2-0.088-0.444-0.308-0.552-0.108-0.032-0.456-0.092-0.532 0.024-0.112-0.28-0.504-0.388-0.756-0.476-0.364-0.132-0.676-0.132-1.060-0.076 0.128-0.016-0.036-0.584-0.344-0.492 0.088-0.184 0.056-0.388 0.088-0.568 0.040-0.148 0.108-0.296 0.22-0.42 0.036-0.072 0.44-0.492 0.312-0.516 0.312 0.036 0.656 0.056 0.908-0.204 0.164-0.164 0.24-0.436 0.408-0.616 0.24-0.28 0.54 0.072 0.792 0.088 0.384 0.024 0.36-0.384 0.14-0.568 0.26 0.020 0.040-0.42-0.092-0.476-0.16-0.056-0.788 0.108-0.456 0.24-0.072-0.036-0.516 0.88-0.772 0.42-0.072-0.092-0.108-0.476-0.268-0.492-0.148 0-0.236 0.164-0.292 0.272 0.088-0.24-0.516-0.408-0.64-0.424 0.272-0.184 0.056-0.388-0.148-0.496-0.148-0.088-0.604-0.164-0.728-0.016-0.352 0.42 0.36 0.476 0.548 0.584 0.056 0.040 0.272 0.164 0.14 0.256-0.108 0.056-0.432 0.148-0.468 0.22-0.112 0.164 0.124 0.352-0.040 0.516-0.164-0.164-0.164-0.44-0.288-0.624 0.164 0.204-0.664 0.1-0.64 0.1-0.272 0-0.716 0.176-0.92-0.1-0.036-0.068-0.036-0.492 0.076-0.404-0.164-0.128-0.276-0.252-0.388-0.328-0.604 0.2-1.172 0.46-1.708 0.748 0.076 0.020 0.124 0.020 0.216-0.016 0.144-0.056 0.264-0.148 0.404-0.22 0.184-0.068 0.568-0.296 0.772-0.132 0.024-0.036 0.076-0.072 0.096-0.088 0.132 0.148 0.256 0.292 0.368 0.456-0.14-0.072-0.384-0.032-0.548-0.016-0.132 0.036-0.348 0.072-0.404 0.22 0.056 0.092 0.124 0.24 0.088 0.336-0.236-0.168-0.416-0.444-0.74-0.48-0.144 0-0.284 0-0.4 0.020-1.768 0.968-3.256 2.384-4.32 4.072 0.072 0.076 0.148 0.132 0.22 0.148 0.184 0.056 0 0.584 0.348 0.312 0.108 0.092 0.128 0.22 0.056 0.344 0.016-0.016 0.748 0.46 0.804 0.496 0.132 0.112 0.332 0.236 0.388 0.384 0.036 0.132-0.072 0.276-0.188 0.328-0.016-0.032-0.288-0.304-0.328-0.236-0.056 0.096 0 0.584 0.204 0.572-0.296 0.016-0.164 1.156-0.244 1.372 0 0.016 0.036 0.016 0.036 0.016-0.056 0.22 0.128 1.084 0.5 0.988-0.24 0.056 0.42 0.9 0.516 0.956 0.232 0.164 0.512 0.272 0.68 0.512 0.184 0.256 0.184 0.64 0.444 0.844-0.076 0.22 0.388 0.476 0.368 0.788-0.040 0.016-0.056 0.016-0.092 0.040 0.092 0.252 0.44 0.252 0.572 0.492 0.072 0.148 0 0.492 0.236 0.42 0.040-0.408-0.236-0.804-0.436-1.14-0.116-0.18-0.224-0.344-0.316-0.532-0.088-0.164-0.108-0.368-0.18-0.548 0.072 0.016 0.476 0.164 0.444 0.22-0.148 0.364 0.584 1.008 0.776 1.248 0.056 0.056 0.472 0.6 0.252 0.6 0.236 0 0.572 0.368 0.68 0.552 0.164 0.272 0.124 0.62 0.24 0.916 0.108 0.368 0.624 0.532 0.92 0.696 0.256 0.132 0.476 0.312 0.732 0.408 0.384 0.148 0.472 0.016 0.796-0.040 0.476-0.068 0.532 0.46 0.916 0.664 0.236 0.128 0.744 0.312 0.996 0.2-0.104 0.036 0.396 0.788 0.428 0.844 0.172 0.22 0.48 0.328 0.664 0.548 0.056-0.036 0.104-0.092 0.124-0.164-0.068 0.204 0.28 0.584 0.468 0.548 0.192-0.056 0.248-0.464 0.248-0.612zM16 0c-8.836 0-16 7.164-16 16s7.164 16 16 16c8.836 0 16-7.16 16-16 0-8.836-7.164-16-16-16zM15.992 30.084c-7.756 0-14.072-6.308-14.072-14.088 0-7.772 6.312-14.080 14.068-14.080 7.78 0 14.092 6.308 14.092 14.080 0 7.78-6.308 14.088-14.088 14.088z"></path>
    </symbol>
    <symbol id="icon-search" viewBox="0 0 30 32">
      <title>search</title>
      <path class="path1" d="M20.571 14.857q0-3.304-2.348-5.652t-5.652-2.348-5.652 2.348-2.348 5.652 2.348 5.652 5.652 2.348 5.652-2.348 2.348-5.652zM29.714 29.714q0 0.929-0.679 1.607t-1.607 0.679q-0.964 0-1.607-0.679l-6.125-6.107q-3.196 2.214-7.125 2.214-2.554 0-4.884-0.991t-4.018-2.679-2.679-4.018-0.991-4.884 0.991-4.884 2.679-4.018 4.018-2.679 4.884-0.991 4.884 0.991 4.018 2.679 2.679 4.018 0.991 4.884q0 3.929-2.214 7.125l6.125 6.125q0.661 0.661 0.661 1.607z"></path>
    </symbol>
    <symbol id="icon-user" viewBox="0 0 25 32">
      <title>user</title>
      <path class="path1" d="M25.143 25.089q0 2.143-1.304 3.384t-3.464 1.241h-15.607q-2.161 0-3.464-1.241t-1.304-3.384q0-0.946 0.063-1.848t0.25-1.946 0.473-1.938 0.768-1.741 1.107-1.446 1.527-0.955 1.991-0.357q0.161 0 0.75 0.384t1.33 0.857 1.929 0.857 2.384 0.384 2.384-0.384 1.929-0.857 1.33-0.857 0.75-0.384q1.089 0 1.991 0.357t1.527 0.955 1.107 1.446 0.768 1.741 0.473 1.938 0.25 1.946 0.063 1.848zM19.429 9.143q0 2.839-2.009 4.848t-4.848 2.009-4.848-2.009-2.009-4.848 2.009-4.848 4.848-2.009 4.848 2.009 2.009 4.848z"></path>
    </symbol>
    <symbol id="icon-check" viewBox="0 0 32 32">
      <title>check</title>
      <path class="path1" d="M29.839 10.107q0 0.714-0.5 1.214l-15.357 15.357q-0.5 0.5-1.214 0.5t-1.214-0.5l-8.893-8.893q-0.5-0.5-0.5-1.214t0.5-1.214l2.429-2.429q0.5-0.5 1.214-0.5t1.214 0.5l5.25 5.268 11.714-11.732q0.5-0.5 1.214-0.5t1.214 0.5l2.429 2.429q0.5 0.5 0.5 1.214z"></path>
    </symbol>
    <symbol id="icon-cross" viewBox="0 0 25 32">
      <title>cross</title>
      <path class="path1" d="M23.179 23.607q0 0.714-0.5 1.214l-2.429 2.429q-0.5 0.5-1.214 0.5t-1.214-0.5l-5.25-5.25-5.25 5.25q-0.5 0.5-1.214 0.5t-1.214-0.5l-2.429-2.429q-0.5-0.5-0.5-1.214t0.5-1.214l5.25-5.25-5.25-5.25q-0.5-0.5-0.5-1.214t0.5-1.214l2.429-2.429q0.5-0.5 1.214-0.5t1.214 0.5l5.25 5.25 5.25-5.25q0.5-0.5 1.214-0.5t1.214 0.5l2.429 2.429q0.5 0.5 0.5 1.214t-0.5 1.214l-5.25 5.25 5.25 5.25q0.5 0.5 0.5 1.214z"></path>
    </symbol>
    <symbol id="icon-tags" viewBox="0 0 34 32">
      <title>tags</title>
      <path class="path1" d="M8 8q0-0.946-0.67-1.616t-1.616-0.67-1.616 0.67-0.67 1.616 0.67 1.616 1.616 0.67 1.616-0.67 0.67-1.616zM27.054 18.286q0 0.946-0.661 1.607l-8.768 8.786q-0.696 0.661-1.625 0.661-0.946 0-1.607-0.661l-12.768-12.786q-0.679-0.661-1.152-1.804t-0.473-2.089v-7.429q0-0.929 0.679-1.607t1.607-0.679h7.429q0.946 0 2.089 0.473t1.821 1.152l12.768 12.75q0.661 0.696 0.661 1.625zM33.911 18.286q0 0.946-0.661 1.607l-8.768 8.786q-0.696 0.661-1.625 0.661-0.643 0-1.054-0.25t-0.946-0.804l8.393-8.393q0.661-0.661 0.661-1.607 0-0.929-0.661-1.625l-12.768-12.75q-0.679-0.679-1.821-1.152t-2.089-0.473h4q0.946 0 2.089 0.473t1.821 1.152l12.768 12.75q0.661 0.696 0.661 1.625z"></path>
    </symbol>
    <symbol id="icon-warning" viewBox="0 0 27 32">
      <title>warning</title>
      <path class="path1" d="M16 24.571v-3.429q0-0.25-0.161-0.411t-0.411-0.161h-3.429q-0.25 0-0.411 0.161t-0.161 0.411v3.429q0 0.25 0.161 0.411t0.411 0.161h3.429q0.25 0 0.411-0.161t0.161-0.411zM20.571 12.571q0-1.571-0.991-2.911t-2.473-2.071-3.036-0.732q-4.339 0-6.625 3.804-0.268 0.429 0.143 0.75l2.357 1.786q0.125 0.107 0.339 0.107 0.286 0 0.446-0.214 0.946-1.214 1.536-1.643 0.607-0.429 1.536-0.429 0.857 0 1.527 0.464t0.67 1.054q0 0.679-0.357 1.089t-1.214 0.804q-1.125 0.5-2.063 1.545t-0.938 2.241v0.643q0 0.25 0.161 0.411t0.411 0.161h3.429q0.25 0 0.411-0.161t0.161-0.411q0-0.339 0.384-0.884t0.973-0.884q0.571-0.321 0.875-0.509t0.821-0.625 0.795-0.857 0.5-1.080 0.223-1.446zM27.429 16q0 3.732-1.839 6.884t-4.991 4.991-6.884 1.839-6.884-1.839-4.991-4.991-1.839-6.884 1.839-6.884 4.991-4.991 6.884-1.839 6.884 1.839 4.991 4.991 1.839 6.884z"></path>
    </symbol>
    <symbol id="icon-info" viewBox="0 0 27 32">
      <title>info</title>
      <path class="path1" d="M18.286 24.571v-2.857q0-0.25-0.161-0.411t-0.411-0.161h-1.714v-9.143q0-0.25-0.161-0.411t-0.411-0.161h-5.714q-0.25 0-0.411 0.161t-0.161 0.411v2.857q0 0.25 0.161 0.411t0.411 0.161h1.714v5.714h-1.714q-0.25 0-0.411 0.161t-0.161 0.411v2.857q0 0.25 0.161 0.411t0.411 0.161h8q0.25 0 0.411-0.161t0.161-0.411zM16 8.571v-2.857q0-0.25-0.161-0.411t-0.411-0.161h-3.429q-0.25 0-0.411 0.161t-0.161 0.411v2.857q0 0.25 0.161 0.411t0.411 0.161h3.429q0.25 0 0.411-0.161t0.161-0.411zM27.429 16q0 3.732-1.839 6.884t-4.991 4.991-6.884 1.839-6.884-1.839-4.991-4.991-1.839-6.884 1.839-6.884 4.991-4.991 6.884-1.839 6.884 1.839 4.991 4.991 1.839 6.884z"></path>
    </symbol>
    <symbol id="icon-plus" viewBox="0 0 25 32">
      <title>plus</title>
      <path class="path1" d="M25.143 13.143v3.429q0 0.714-0.5 1.214t-1.214 0.5h-7.429v7.429q0 0.714-0.5 1.214t-1.214 0.5h-3.429q-0.714 0-1.214-0.5t-0.5-1.214v-7.429h-7.429q-0.714 0-1.214-0.5t-0.5-1.214v-3.429q0-0.714 0.5-1.214t1.214-0.5h7.429v-7.429q0-0.714 0.5-1.214t1.214-0.5h3.429q0.714 0 1.214 0.5t0.5 1.214v7.429h7.429q0.714 0 1.214 0.5t0.5 1.214z"></path>
    </symbol>
    <symbol id="icon-minus" viewBox="0 0 25 32">
      <title>minus</title>
      <path class="path1" d="M25.143 13.143v3.429q0 0.714-0.5 1.214t-1.214 0.5h-21.714q-0.714 0-1.214-0.5t-0.5-1.214v-3.429q0-0.714 0.5-1.214t1.214-0.5h21.714q0.714 0 1.214 0.5t0.5 1.214z"></path>
    </symbol>
    <symbol id="icon-error" viewBox="0 0 27 32">
      <title>error</title>
      <path class="path1" d="M13.714 2.286q3.732 0 6.884 1.839t4.991 4.991 1.839 6.884-1.839 6.884-4.991 4.991-6.884 1.839-6.884-1.839-4.991-4.991-1.839-6.884 1.839-6.884 4.991-4.991 6.884-1.839zM16 24.554v-3.393q0-0.25-0.161-0.42t-0.393-0.17h-3.429q-0.232 0-0.411 0.179t-0.179 0.411v3.393q0 0.232 0.179 0.411t0.411 0.179h3.429q0.232 0 0.393-0.17t0.161-0.42zM15.964 18.411l0.321-11.089q0-0.214-0.179-0.321-0.179-0.143-0.429-0.143h-3.929q-0.25 0-0.429 0.143-0.179 0.107-0.179 0.321l0.304 11.089q0 0.179 0.179 0.313t0.429 0.134h3.304q0.25 0 0.42-0.134t0.188-0.313z"></path>
    </symbol>
    <symbol id="icon-twitter" viewBox="0 0 30 32">
      <title>twitter</title>
      <path class="path1" d="M28.929 7.286q-1.196 1.75-2.893 2.982 0.018 0.25 0.018 0.75 0 2.321-0.679 4.634t-2.063 4.437-3.295 3.759-4.607 2.607-5.768 0.973q-4.839 0-8.857-2.589 0.625 0.071 1.393 0.071 4.018 0 7.161-2.464-1.875-0.036-3.357-1.152t-2.036-2.848q0.589 0.089 1.089 0.089 0.768 0 1.518-0.196-2-0.411-3.313-1.991t-1.313-3.67v-0.071q1.214 0.679 2.607 0.732-1.179-0.786-1.875-2.054t-0.696-2.75q0-1.571 0.786-2.911 2.161 2.661 5.259 4.259t6.634 1.777q-0.143-0.679-0.143-1.321 0-2.393 1.688-4.080t4.080-1.688q2.5 0 4.214 1.821 1.946-0.375 3.661-1.393-0.661 2.054-2.536 3.179 1.661-0.179 3.321-0.893z"></path>
    </symbol>
    <symbol id="icon-facebook" viewBox="0 0 19 32">
      <title>facebook</title>
      <path class="path1" d="M17.125 0.214v4.714h-2.804q-1.536 0-2.071 0.643t-0.536 1.929v3.375h5.232l-0.696 5.286h-4.536v13.554h-5.464v-13.554h-4.554v-5.286h4.554v-3.893q0-3.321 1.857-5.152t4.946-1.83q2.625 0 4.071 0.214z"></path>
    </symbol>
    <symbol id="icon-credit-card" viewBox="0 0 34 32">
      <title>credit-card</title>
      <path class="path1" d="M31.429 2.286q1.179 0 2.018 0.839t0.839 2.018v21.714q0 1.179-0.839 2.018t-2.018 0.839h-28.571q-1.179 0-2.018-0.839t-0.839-2.018v-21.714q0-1.179 0.839-2.018t2.018-0.839h28.571zM2.857 4.571q-0.232 0-0.402 0.17t-0.17 0.402v4h29.714v-4q0-0.232-0.17-0.402t-0.402-0.17h-28.571zM31.429 27.429q0.232 0 0.402-0.17t0.17-0.402v-10.857h-29.714v10.857q0 0.232 0.17 0.402t0.402 0.17h28.571zM4.571 25.143v-2.286h4.571v2.286h-4.571zM11.429 25.143v-2.286h6.857v2.286h-6.857z"></path>
    </symbol>
    <symbol id="icon-pinterest" viewBox="0 0 27 32">
      <title>pinterest</title>
      <path class="path1" d="M27.429 16q0 3.732-1.839 6.884t-4.991 4.991-6.884 1.839q-1.982 0-3.893-0.571 1.054-1.661 1.393-2.929 0.161-0.607 0.964-3.768 0.357 0.696 1.304 1.205t2.036 0.509q2.161 0 3.857-1.223t2.625-3.366 0.929-4.821q0-2.036-1.063-3.821t-3.080-2.911-4.554-1.125q-1.875 0-3.5 0.518t-2.759 1.375-1.946 1.973-1.196 2.313-0.384 2.393q0 1.857 0.714 3.268t2.089 1.982q0.536 0.214 0.679-0.357 0.036-0.125 0.143-0.554t0.143-0.536q0.107-0.411-0.196-0.768-0.911-1.089-0.911-2.696 0-2.696 1.866-4.634t4.884-1.938q2.696 0 4.205 1.464t1.509 3.804q0 3.036-1.223 5.161t-3.134 2.125q-1.089 0-1.75-0.777t-0.411-1.866q0.143-0.625 0.473-1.67t0.536-1.839 0.205-1.348q0-0.893-0.482-1.482t-1.375-0.589q-1.107 0-1.875 1.018t-0.768 2.536q0 1.304 0.446 2.179l-1.768 7.464q-0.304 1.25-0.232 3.161-3.679-1.625-5.946-5.018t-2.268-7.554q0-3.732 1.839-6.884t4.991-4.991 6.884-1.839 6.884 1.839 4.991 4.991 1.839 6.884z"></path>
    </symbol>
    <symbol id="icon-google-plus" viewBox="0 0 41 32">
      <title>google-plus</title>
      <path class="path1" d="M25.661 16.304q0 3.714-1.554 6.616t-4.429 4.536-6.589 1.634q-2.661 0-5.089-1.036t-4.179-2.786-2.786-4.179-1.036-5.089 1.036-5.089 2.786-4.179 4.179-2.786 5.089-1.036q5.107 0 8.768 3.429l-3.554 3.411q-2.089-2.018-5.214-2.018-2.196 0-4.063 1.107t-2.955 3.009-1.089 4.152 1.089 4.152 2.955 3.009 4.063 1.107q1.482 0 2.723-0.411t2.045-1.027 1.402-1.402 0.875-1.482 0.384-1.321h-7.429v-4.5h12.357q0.214 1.125 0.214 2.179zM41.143 14.125v3.75h-3.732v3.732h-3.75v-3.732h-3.732v-3.75h3.732v-3.732h3.75v3.732h3.732z"></path>
    </symbol>
    <symbol id="icon-envelope" viewBox="0 0 32 32">
      <title>envelope</title>
      <path class="path1" d="M32 12.679v14.179q0 1.179-0.839 2.018t-2.018 0.839h-26.286q-1.179 0-2.018-0.839t-0.839-2.018v-14.179q0.786 0.875 1.804 1.554 6.464 4.393 8.875 6.161 1.018 0.75 1.652 1.17t1.688 0.857 1.964 0.438h0.036q0.911 0 1.964-0.438t1.688-0.857 1.652-1.17q3.036-2.196 8.893-6.161 1.018-0.696 1.786-1.554zM32 7.429q0 1.411-0.875 2.696t-2.179 2.196q-6.714 4.661-8.357 5.804-0.179 0.125-0.759 0.545t-0.964 0.679-0.929 0.58-1.027 0.482-0.893 0.161h-0.036q-0.411 0-0.893-0.161t-1.027-0.482-0.929-0.58-0.964-0.679-0.759-0.545q-1.625-1.143-4.679-3.259t-3.661-2.545q-1.107-0.75-2.089-2.063t-0.982-2.438q0-1.393 0.741-2.321t2.116-0.929h26.286q1.161 0 2.009 0.839t0.848 2.018z"></path>
    </symbol>
    <symbol id="icon-comments-o" viewBox="0 0 32 32">
      <title>comments-o</title>
      <path class="path1" d="M12.571 6.857q-2.732 0-5.107 0.929t-3.777 2.518-1.402 3.411q0 1.464 0.946 2.821t2.661 2.357l1.732 1-0.625 1.5q0.607-0.357 1.107-0.696l0.786-0.554 0.946 0.179q1.393 0.25 2.732 0.25 2.732 0 5.107-0.929t3.777-2.518 1.402-3.411-1.402-3.411-3.777-2.518-5.107-0.929zM12.571 4.571q3.411 0 6.313 1.223t4.58 3.33 1.679 4.589-1.679 4.589-4.58 3.33-6.313 1.223q-1.536 0-3.143-0.286-2.214 1.571-4.964 2.286-0.643 0.161-1.536 0.286h-0.054q-0.196 0-0.366-0.143t-0.205-0.375q-0.018-0.054-0.018-0.116t0.009-0.116 0.036-0.107l0.045-0.089t0.063-0.098 0.071-0.089 0.080-0.089 0.071-0.080q0.089-0.107 0.411-0.446t0.464-0.527 0.402-0.518 0.446-0.688 0.366-0.786q-2.214-1.286-3.482-3.161t-1.268-4q0-2.482 1.679-4.589t4.58-3.33 6.312-1.223zM27.25 25.446q0.179 0.429 0.366 0.786t0.446 0.688 0.402 0.518 0.464 0.527 0.411 0.446q0.018 0.018 0.071 0.080t0.080 0.089 0.071 0.089 0.063 0.098l0.045 0.089t0.036 0.107 0.009 0.116-0.018 0.116q-0.054 0.25-0.232 0.393t-0.393 0.125q-0.893-0.125-1.536-0.286-2.75-0.714-4.964-2.286-1.607 0.286-3.143 0.286-4.839 0-8.429-2.357 1.036 0.071 1.571 0.071 2.875 0 5.518-0.804t4.714-2.304q2.232-1.643 3.429-3.786t1.196-4.536q0-1.375-0.411-2.714 2.304 1.268 3.643 3.179t1.339 4.107q0 2.143-1.268 4.009t-3.482 3.152z"></path>
    </symbol>
    <symbol id="icon-left" viewBox="0 0 12 32">
      <title>left</title>
      <path class="path1" d="M11.196 9.714q0 0.232-0.179 0.411l-7.018 7.018 7.018 7.018q0.179 0.179 0.179 0.411t-0.179 0.411l-0.893 0.893q-0.179 0.179-0.411 0.179t-0.411-0.179l-8.321-8.321q-0.179-0.179-0.179-0.411t0.179-0.411l8.321-8.321q0.179-0.179 0.411-0.179t0.411 0.179l0.893 0.893q0.179 0.179 0.179 0.411z"></path>
    </symbol>
    <symbol id="icon-right" viewBox="0 0 11 32">
      <title>right</title>
      <path class="path1" d="M10.625 17.143q0 0.232-0.179 0.411l-8.321 8.321q-0.179 0.179-0.411 0.179t-0.411-0.179l-0.893-0.893q-0.179-0.179-0.179-0.411t0.179-0.411l7.018-7.018-7.018-7.018q-0.179-0.179-0.179-0.411t0.179-0.411l0.893-0.893q0.179-0.179 0.411-0.179t0.411 0.179l8.321 8.321q0.179 0.179 0.179 0.411z"></path>
    </symbol>
    <symbol id="icon-up" viewBox="0 0 21 32">
      <title>up</title>
      <path class="path1" d="M19.196 21.143q0 0.232-0.179 0.411l-0.893 0.893q-0.179 0.179-0.411 0.179t-0.411-0.179l-7.018-7.018-7.018 7.018q-0.179 0.179-0.411 0.179t-0.411-0.179l-0.893-0.893q-0.179-0.179-0.179-0.411t0.179-0.411l8.321-8.321q0.179-0.179 0.411-0.179t0.411 0.179l8.321 8.321q0.179 0.179 0.179 0.411z"></path>
    </symbol>
    <symbol id="icon-down" viewBox="0 0 21 32">
      <title>down</title>
      <path class="path1" d="M19.196 13.143q0 0.232-0.179 0.411l-8.321 8.321q-0.179 0.179-0.411 0.179t-0.411-0.179l-8.321-8.321q-0.179-0.179-0.179-0.411t0.179-0.411l0.893-0.893q0.179-0.179 0.411-0.179t0.411 0.179l7.018 7.018 7.018-7.018q0.179-0.179 0.411-0.179t0.411 0.179l0.893 0.893q0.179 0.179 0.179 0.411z"></path>
    </symbol>
    <symbol id="icon-reply" viewBox="0 0 32 32">
      <title>reply</title>
      <path class="path1" d="M32 20q0 2.964-2.268 8.054-0.054 0.125-0.188 0.429t-0.241 0.536-0.232 0.393q-0.214 0.304-0.5 0.304-0.268 0-0.42-0.179t-0.152-0.446q0-0.161 0.045-0.473t0.045-0.42q0.089-1.214 0.089-2.196 0-1.804-0.313-3.232t-0.866-2.473-1.429-1.804-1.884-1.241-2.375-0.759-2.75-0.384-3.134-0.107h-4v4.571q0 0.464-0.339 0.804t-0.804 0.339-0.804-0.339l-9.143-9.143q-0.339-0.339-0.339-0.804t0.339-0.804l9.143-9.143q0.339-0.339 0.804-0.339t0.804 0.339 0.339 0.804v4.571h4q12.732 0 15.625 7.196 0.946 2.393 0.946 5.946z"></path>
    </symbol>
    <symbol id="icon-instagram" viewBox="0 0 27 32">
      <title>instagram</title>
      <path class="path1" d="M18.286 16q0-1.893-1.339-3.232t-3.232-1.339-3.232 1.339-1.339 3.232 1.339 3.232 3.232 1.339 3.232-1.339 1.339-3.232zM20.75 16q0 2.929-2.054 4.982t-4.982 2.054-4.982-2.054-2.054-4.982 2.054-4.982 4.982-2.054 4.982 2.054 2.054 4.982zM22.679 8.679q0 0.679-0.482 1.161t-1.161 0.482-1.161-0.482-0.482-1.161 0.482-1.161 1.161-0.482 1.161 0.482 0.482 1.161zM13.714 4.75q-0.125 0-1.366-0.009t-1.884 0-1.723 0.054-1.839 0.179-1.277 0.33q-0.893 0.357-1.571 1.036t-1.036 1.571q-0.196 0.518-0.33 1.277t-0.179 1.839-0.054 1.723 0 1.884 0.009 1.366-0.009 1.366 0 1.884 0.054 1.723 0.179 1.839 0.33 1.277q0.357 0.893 1.036 1.571t1.571 1.036q0.518 0.196 1.277 0.33t1.839 0.179 1.723 0.054 1.884 0 1.366-0.009 1.366 0.009 1.884 0 1.723-0.054 1.839-0.179 1.277-0.33q0.893-0.357 1.571-1.036t1.036-1.571q0.196-0.518 0.33-1.277t0.179-1.839 0.054-1.723 0-1.884-0.009-1.366 0.009-1.366 0-1.884-0.054-1.723-0.179-1.839-0.33-1.277q-0.357-0.893-1.036-1.571t-1.571-1.036q-0.518-0.196-1.277-0.33t-1.839-0.179-1.723-0.054-1.884 0-1.366 0.009zM27.429 16q0 4.089-0.089 5.661-0.179 3.714-2.214 5.75t-5.75 2.214q-1.571 0.089-5.661 0.089t-5.661-0.089q-3.714-0.179-5.75-2.214t-2.214-5.75q-0.089-1.571-0.089-5.661t0.089-5.661q0.179-3.714 2.214-5.75t5.75-2.214q1.571-0.089 5.661-0.089t5.661 0.089q3.714 0.179 5.75 2.214t2.214 5.75q0.089 1.571 0.089 5.661z"></path>
    </symbol>
    <symbol id="icon-whatsapp" viewBox="0 0 27 32">
      <title>whatsapp</title>
      <path class="path1" d="M17.589 17.393q0.232 0 1.741 0.786t1.598 0.946q0.036 0.089 0.036 0.268 0 0.589-0.304 1.357-0.286 0.696-1.268 1.17t-1.821 0.473q-1.018 0-3.393-1.107-1.75-0.804-3.036-2.107t-2.643-3.304q-1.286-1.911-1.268-3.464v-0.143q0.054-1.625 1.321-2.821 0.429-0.393 0.929-0.393 0.107 0 0.321 0.027t0.339 0.027q0.339 0 0.473 0.116t0.277 0.491q0.143 0.357 0.589 1.571t0.446 1.339q0 0.375-0.616 1.027t-0.616 0.83q0 0.125 0.089 0.268 0.607 1.304 1.821 2.446 1 0.946 2.696 1.804 0.214 0.125 0.393 0.125 0.268 0 0.964-0.866t0.929-0.866zM13.964 26.857q2.268 0 4.348-0.893t3.58-2.393 2.393-3.58 0.893-4.348-0.893-4.348-2.393-3.58-3.58-2.393-4.348-0.893-4.348 0.893-3.58 2.393-2.393 3.58-0.893 4.348q0 3.625 2.143 6.571l-1.411 4.161 4.321-1.375q2.821 1.857 6.161 1.857zM13.964 2.179q2.732 0 5.223 1.071t4.295 2.875 2.875 4.295 1.071 5.223-1.071 5.223-2.875 4.295-4.295 2.875-5.223 1.071q-3.482 0-6.518-1.679l-7.446 2.393 2.429-7.232q-1.929-3.179-1.929-6.946 0-2.732 1.071-5.223t2.875-4.295 4.295-2.875 5.223-1.071z"></path>
    </symbol>
    <symbol id="icon-vimeo" viewBox="0 0 32 32">
      <title>vimeo</title>
      <path class="path1" d="M30.518 9.25q-0.179 4.214-5.929 11.625-5.946 7.696-10.036 7.696-2.536 0-4.286-4.696-0.786-2.857-2.357-8.607-1.286-4.679-2.804-4.679-0.321 0-2.268 1.357l-1.375-1.75q0.429-0.375 1.929-1.723t2.321-2.063q2.786-2.464 4.304-2.607 1.696-0.161 2.732 0.991t1.446 3.634q0.786 5.125 1.179 6.661 0.982 4.446 2.143 4.446 0.911 0 2.75-2.875 1.804-2.875 1.946-4.393 0.232-2.482-1.946-2.482-1.018 0-2.161 0.464 2.143-7.018 8.196-6.821 4.482 0.143 4.214 5.821z"></path>
    </symbol>
  </defs>
</svg>
